<svg xmlns="http://www.w3.org/2000/svg" width="1440" height="900" viewBox="0 0 1440 900">
 <defs><linearGradient id="bg" x1="0" y1="0" x2="1" y2="1"><stop stop-color="#f6f3ed"/><stop offset="1" stop-color="#e9e5dc"/></linearGradient><linearGradient id="hero" x1="0" y1="0" x2="1" y2="1"><stop stop-color="#c6d8cf"/><stop offset=".55" stop-color="#91aaa1"/><stop offset="1" stop-color="#d9b78e"/></linearGradient></defs>
 <rect width="1440" height="900" fill="url(#bg)"/>
 <rect x="0" y="0" width="1440" height="92" fill="#f8f7f3"/><path d="M0 91.5H1440" stroke="#d8d8ce"/>
 <text x="92" y="56" font-family="Arial,sans-serif" font-size="24" font-weight="700" fill="#24322e">다음연구소</text><text x="780" y="55" font-family="Arial,sans-serif" font-size="14" fill="#64716b">회사소개　　서비스　　소식　　팀</text><rect x="1226" y="24" width="132" height="46" rx="23" fill="#263b34"/><text x="1253" y="53" font-family="Arial,sans-serif" font-size="14" fill="#fff">함께 만들기 ↗</text>
 <text x="94" y="185" font-family="Arial,sans-serif" font-size="13" letter-spacing="2" fill="#687b70">A THOUGHTFUL COMPANY FOR WHAT COMES NEXT</text>
 <text x="88" y="276" font-family="Arial,sans-serif" font-size="62" font-weight="700" fill="#1c2925">복잡한 문제를</text><text x="88" y="353" font-family="Arial,sans-serif" font-size="62" font-weight="700" fill="#1c2925">명료한 경험으로.</text>
 <text x="92" y="414" font-family="Arial,sans-serif" font-size="19" fill="#65716c">제품과 서비스를 함께 설계하는 작은 회사입니다.</text>
 <rect x="92" y="466" width="184" height="55" rx="28" fill="#263b34"/><text x="120" y="500" font-family="Arial,sans-serif" font-size="15" fill="#fff">서비스 둘러보기 ↗</text><text x="307" y="500" font-family="Arial,sans-serif" font-size="15" fill="#33443d">우리가 일하는 방식 →</text>
 <rect x="785" y="130" width="565" height="405" rx="12" fill="url(#hero)"/><circle cx="1113" cy="337" r="160" fill="none" stroke="#f8f6ed" stroke-opacity=".48" stroke-width="1.5"/><circle cx="1113" cy="337" r="119" fill="none" stroke="#f8f6ed" stroke-opacity=".38"/><rect x="876" y="214" width="256" height="201" rx="8" fill="#f7f5ef"/><rect x="900" y="238" width="207" height="9" rx="4" fill="#d3d9d1"/><rect x="900" y="270" width="140" height="115" rx="4" fill="#536c60"/><rect x="1052" y="270" width="55" height="52" rx="3" fill="#d7ae7e"/><rect x="1052" y="333" width="55" height="52" rx="3" fill="#d4ddd4"/><text x="900" y="403" font-family="Arial,sans-serif" font-size="9" letter-spacing="1" fill="#53635b">FIELD NOTES · 01 / 03</text><rect x="1100" y="444" width="220" height="45" rx="22" fill="#f8f6ef"/><text x="1121" y="472" font-family="Arial,sans-serif" font-size="12" fill="#34453d">매일의 문제를 가능성으로</text>
 <rect x="0" y="598" width="1440" height="302" fill="#f8f7f3"/><text x="95" y="661" font-family="Arial,sans-serif" font-size="13" letter-spacing="2" fill="#78877c">OUR POINT OF VIEW</text><text x="92" y="722" font-family="Arial,sans-serif" font-size="34" font-weight="700" fill="#1c2925">복잡한 것을 덜어내고,</text><text x="92" y="765" font-family="Arial,sans-serif" font-size="34" font-weight="700" fill="#1c2925">중요한 일에 집중합니다.</text><text x="94" y="812" font-family="Arial,sans-serif" font-size="15" fill="#67736d">발견하고　　　　함께 설계하고　　　　현실로 만듭니다</text>
 <rect x="833" y="638" width="170" height="196" rx="8" fill="#e8e9df"/><rect x="1020" y="638" width="170" height="196" rx="8" fill="#e6e2d8"/><rect x="1207" y="638" width="170" height="196" rx="8" fill="#dfe7e2"/><text x="855" y="679" font-family="Arial,sans-serif" font-size="11" fill="#738078">01 / OUR WORK</text><text x="1042" y="679" font-family="Arial,sans-serif" font-size="11" fill="#738078">02 / OUR WORK</text><text x="1229" y="679" font-family="Arial,sans-serif" font-size="11" fill="#738078">03 / OUR WORK</text><text x="855" y="742" font-family="Arial,sans-serif" font-size="20" font-weight="700" fill="#26352f">사용자 조사 ↗</text><text x="1042" y="742" font-family="Arial,sans-serif" font-size="20" font-weight="700" fill="#26352f">브랜드 전략 ↗</text><text x="1229" y="742" font-family="Arial,sans-serif" font-size="20" font-weight="700" fill="#26352f">제품 설계 ↗</text><text x="855" y="790" font-family="Arial,sans-serif" font-size="12" fill="#69756f">사람과 맥락을 이해합니다</text><text x="1042" y="790" font-family="Arial,sans-serif" font-size="12" fill="#69756f">분명한 방향을 만듭니다</text><text x="1229" y="790" font-family="Arial,sans-serif" font-size="12" fill="#69756f">지속되는 경험을 빚습니다</text>
</svg>
